<svg width="150" height="24" viewBox="0 0 150 24" fill="none" xmlns="http://www.w3.org/2000/svg">
<path d="M16.6419 4.34074L9.53025 23.2892H8.04064L2.40256 2.65892L-2.73881e-05 1.81001V1.20135H8.87354V1.81001L6.11857 2.62689L10.5073 19.1407L9.6744 19.2528L16.3376 0.945075H17.8913L25.1151 19.5251L23.9458 19.8935L28.0302 2.64291L25.2752 1.79399V1.20135H31.9544V1.79399L29.5999 2.65892L24.3462 23.2892H22.8566L15.5527 4.83727L16.6419 4.34074ZM38.4895 22.168C39.2583 22.168 39.931 21.9597 40.5077 21.5433C41.0843 21.1268 41.5328 20.4808 41.8531 19.6052C42.1734 18.7296 42.3336 17.603 42.3336 16.2256C42.3336 14.752 42.1734 13.5186 41.8531 12.5256C41.5434 11.5218 41.095 10.7637 40.5077 10.2511C39.931 9.73856 39.2263 9.48228 38.3934 9.48228C37.6245 9.48228 36.9518 9.69051 36.3752 10.107C35.7986 10.5234 35.3501 11.1748 35.0297 12.0611C34.7201 12.9367 34.5652 14.0632 34.5652 15.4407C34.5652 16.9036 34.7201 18.1369 35.0297 19.1407C35.3394 20.1338 35.7879 20.8866 36.3752 21.3991C36.9625 21.9117 37.6673 22.168 38.4895 22.168ZM38.3613 23.3853C36.9305 23.3853 35.6651 23.0703 34.5652 22.4403C33.4761 21.8102 32.6218 20.94 32.0025 19.8294C31.3938 18.7082 31.0895 17.4162 31.0895 15.9533C31.0895 14.469 31.4098 13.1502 32.0505 11.997C32.7019 10.8331 33.5882 9.92009 34.7094 9.25804C35.8306 8.59599 37.1013 8.26497 38.5215 8.26497C39.9631 8.26497 41.2284 8.57997 42.3176 9.20999C43.4175 9.84 44.2717 10.7156 44.8804 11.8368C45.489 12.9474 45.7934 14.2341 45.7934 15.697C45.7934 17.1919 45.4677 18.5214 44.8163 19.6853C44.1649 20.8385 43.2786 21.7462 42.1574 22.4082C41.0469 23.0596 39.7815 23.3853 38.3613 23.3853ZM57.5283 8.37709C58.0942 8.37709 58.5106 8.52658 58.7776 8.82557C59.0446 9.11388 59.178 9.49296 59.178 9.9628C59.178 10.5394 58.9912 10.9986 58.6174 11.3403C58.2544 11.682 57.7952 11.8528 57.2399 11.8528C56.941 11.8528 56.6633 11.8101 56.407 11.7247C56.1614 11.6393 55.9052 11.5592 55.6382 11.4844C55.3713 11.399 55.0723 11.3563 54.7413 11.3563C54.485 11.3563 54.218 11.3937 53.9404 11.4684C53.6628 11.5432 53.3905 11.65 53.1235 11.7888C52.8566 11.9276 52.611 12.0931 52.3867 12.2853L52.1144 11.6286C52.7871 11.0093 53.3905 10.4967 53.9244 10.0909C54.4583 9.67449 54.9388 9.34346 55.3659 9.09787C55.7931 8.84159 56.1828 8.66006 56.5352 8.55328C56.8982 8.43582 57.2293 8.37709 57.5283 8.37709ZM52.8032 11.3082V21.7355L55.2058 22.4723V23.0329H47.3733V22.4723L49.6157 21.7515V11.6766C49.4662 11.5165 49.2847 11.3723 49.0711 11.2442C48.8683 11.1054 48.6227 10.9612 48.3343 10.8117C48.0567 10.6622 47.7257 10.5074 47.3413 10.3472V9.91475L52.2906 8.23293H52.611L52.8032 11.3082ZM64.8018 21.7515L67.0763 22.4723V23.0329H59.372V22.4723L61.6144 21.7515V3.44377C61.4756 3.2836 61.2887 3.12342 61.0538 2.96325C60.8296 2.7924 60.5573 2.61621 60.2369 2.43468C59.9166 2.25315 59.5482 2.06628 59.1317 1.87408V1.47364L64.6257 5.53728e-05H64.946L64.8018 2.85113V21.7515ZM79.4091 12.6697C79.4091 11.7728 79.1101 11.0306 78.5121 10.4433C77.9142 9.84534 77.0759 9.54635 75.9974 9.54635C75.1218 9.54635 74.3743 9.78127 73.755 10.2511C73.1357 10.7103 72.6605 11.3883 72.3295 12.2853C72.0091 13.1716 71.8489 14.2661 71.8489 15.5688C71.8489 16.8395 72.0198 17.902 72.3615 18.7563C72.7139 19.5999 73.2051 20.2352 73.8351 20.6623C74.4758 21.0895 75.2393 21.303 76.1256 21.303C76.8624 21.303 77.5725 21.1856 78.2559 20.9506C78.9499 20.705 79.6173 20.3153 80.258 19.7814L80.3061 20.7905C79.5906 21.3137 78.9713 21.7462 78.4481 22.0879C77.9248 22.4296 77.4497 22.6965 77.0225 22.8887C76.6061 23.0703 76.211 23.1984 75.8372 23.2732C75.4635 23.3479 75.0791 23.3853 74.684 23.3853C73.3386 23.3853 72.196 23.097 71.2563 22.5203C70.3166 21.9437 69.6012 21.1429 69.11 20.1177C68.6188 19.0926 68.3732 17.9074 68.3732 16.5619C68.3732 15.2485 68.5868 14.0792 69.0139 13.0541C69.441 12.029 70.023 11.1641 70.7598 10.4593C71.4966 9.7439 72.3455 9.19931 73.3065 8.82557C74.2782 8.45184 75.3087 8.26497 76.3979 8.26497C76.9531 8.26497 77.4977 8.31302 78.0316 8.40912C78.5762 8.49455 79.1261 8.62803 79.6814 8.80955C80.2367 8.98041 80.8133 9.21533 81.4113 9.51432L79.4091 10.155V3.17148C79.2703 3.02198 79.0834 2.87249 78.8485 2.72299C78.6243 2.56282 78.368 2.40799 78.0797 2.25849C77.7914 2.09832 77.4817 1.94348 77.1507 1.79399V1.39356L82.4684 5.53728e-05H82.7727L82.5805 2.8191V20.7745C82.6873 20.8812 82.8261 20.988 82.997 21.0948C83.1678 21.1909 83.3547 21.2923 83.5576 21.3991C83.7605 21.4952 83.9633 21.586 84.1662 21.6714C84.3691 21.7462 84.5613 21.8102 84.7429 21.8636V22.3442L79.9697 23.3853H79.6494L79.4091 20.9186V12.6697ZM107.145 7.38402C107.145 6.38027 106.937 5.53135 106.521 4.83727C106.104 4.14319 105.426 3.61462 104.486 3.25156C103.547 2.87783 102.281 2.69096 100.69 2.69096H96.2375L96.3817 1.20135H102.596C104.55 1.20135 106.125 1.46831 107.321 2.00221C108.517 2.53612 109.388 3.2569 109.932 4.16455C110.488 5.07219 110.765 6.08662 110.765 7.20783C110.765 8.36107 110.482 9.42355 109.916 10.3953C109.35 11.3563 108.464 12.1251 107.257 12.7018C106.061 13.2784 104.508 13.5667 102.596 13.5667H96.3817L96.2375 12.0771H102.244C103.184 12.0771 104.022 11.9009 104.759 11.5485C105.495 11.1855 106.077 10.6569 106.505 9.9628C106.932 9.25804 107.145 8.39845 107.145 7.38402ZM98.8483 1.20135V21.6074L101.395 22.4242V23.0329H92.7617V22.4242L95.2925 21.6074V2.62689L92.7617 1.81001V1.20135H98.8483ZM117.863 8.26497C118.985 8.26497 119.951 8.50523 120.762 8.98575C121.574 9.46626 122.215 10.1657 122.685 11.084C123.165 12.0023 123.459 13.1129 123.565 14.4156H113.459L113.491 13.2944L121.788 12.9901L120.33 13.7269C120.255 12.8085 120.106 12.0397 119.881 11.4204C119.668 10.7904 119.369 10.3152 118.985 9.99483C118.6 9.66381 118.114 9.4983 117.527 9.4983C116.833 9.4983 116.224 9.69584 115.701 10.0909C115.178 10.486 114.772 11.084 114.484 11.8849C114.195 12.6857 114.051 13.6948 114.051 14.9121C114.051 16.2256 114.275 17.3361 114.724 18.2437C115.172 19.1514 115.802 19.8401 116.614 20.31C117.436 20.7691 118.403 20.9987 119.513 20.9987C119.972 20.9987 120.415 20.9453 120.843 20.8385C121.28 20.7211 121.702 20.5449 122.108 20.31C122.524 20.075 122.925 19.7814 123.309 19.429L123.71 19.8935C123.122 20.6837 122.524 21.3404 121.916 21.8636C121.307 22.3762 120.661 22.7606 119.978 23.0169C119.294 23.2625 118.557 23.3853 117.767 23.3853C116.432 23.3853 115.247 23.0809 114.211 22.4723C113.186 21.853 112.38 20.9934 111.793 19.8935C111.216 18.7937 110.928 17.5123 110.928 16.0494C110.928 14.6398 111.2 13.3478 111.745 12.1732C112.289 10.9879 113.079 10.0429 114.115 9.33813C115.151 8.62269 116.4 8.26497 117.863 8.26497ZM134.261 13.855L134.438 14.9282C133.242 15.2378 132.27 15.5475 131.523 15.8572C130.775 16.1561 130.193 16.4658 129.777 16.7862C129.371 17.1065 129.088 17.4482 128.928 17.8113C128.778 18.1636 128.704 18.5534 128.704 18.9805C128.704 19.7387 128.906 20.31 129.312 20.6944C129.729 21.0788 130.241 21.271 130.85 21.271C131.32 21.271 131.741 21.1589 132.115 20.9346C132.5 20.6997 132.804 20.3847 133.028 19.9896C133.252 19.5945 133.365 19.1514 133.365 18.6602V12.3974C133.365 11.5966 133.156 10.9665 132.74 10.5074C132.334 10.0482 131.677 9.81864 130.77 9.81864C130.396 9.81864 130.001 9.86136 129.584 9.94678C129.168 10.0322 128.789 10.155 128.447 10.3152L129.2 9.4983C129.157 9.92542 129.099 10.3152 129.024 10.6676C128.96 11.0199 128.885 11.3296 128.8 11.5966C128.714 11.8528 128.607 12.0504 128.479 12.1892C128.319 12.3707 128.095 12.5149 127.807 12.6217C127.529 12.7178 127.246 12.7658 126.958 12.7658C126.563 12.7658 126.253 12.6857 126.029 12.5256C125.815 12.3654 125.708 12.1465 125.708 11.8689C125.708 11.4738 125.895 11.0733 126.269 10.6676C126.643 10.2511 127.139 9.87203 127.758 9.53033C128.378 9.17795 129.067 8.89498 129.825 8.68142C130.583 8.46785 131.346 8.36107 132.115 8.36107C133.194 8.36107 134.059 8.52658 134.71 8.85761C135.361 9.17795 135.831 9.64245 136.12 10.2511C136.408 10.8598 136.552 11.5859 136.552 12.4295V20.1498C136.552 20.4595 136.6 20.7211 136.696 20.9346C136.792 21.1375 136.926 21.287 137.097 21.3831C137.278 21.4792 137.497 21.5273 137.753 21.5273C138.01 21.5273 138.282 21.4846 138.57 21.3991C138.858 21.303 139.147 21.1696 139.435 20.9987V21.7355C138.869 22.3228 138.303 22.7446 137.737 23.0009C137.182 23.2465 136.637 23.3693 136.103 23.3693C135.506 23.3693 135.004 23.2411 134.598 22.9848C134.203 22.7286 133.909 22.3602 133.717 21.8796C133.525 21.3885 133.423 20.8118 133.413 20.1498L133.525 20.0697C133.354 20.7424 133.071 21.3297 132.676 21.8316C132.291 22.3228 131.827 22.7072 131.282 22.9848C130.738 23.2518 130.145 23.3853 129.504 23.3853C128.34 23.3853 127.385 23.0703 126.637 22.4403C125.89 21.7996 125.516 20.8812 125.516 19.6853C125.516 19.0659 125.634 18.5053 125.868 18.0035C126.114 17.5016 126.547 17.0264 127.166 16.5779C127.796 16.1294 128.682 15.6863 129.825 15.2485C130.978 14.8107 132.457 14.3462 134.261 13.855ZM145.579 8.26497C146.284 8.26497 146.909 8.33438 147.453 8.47319C147.998 8.60133 148.59 8.81489 149.231 9.11388L149.535 13.0701H148.815L146.989 9.06583L148.174 10.4273C147.736 10.0536 147.314 9.78127 146.909 9.61042C146.514 9.43957 146.07 9.35414 145.579 9.35414C144.746 9.35414 144.1 9.53033 143.641 9.88271C143.182 10.2244 142.952 10.7156 142.952 11.3563C142.952 11.8261 143.07 12.2212 143.305 12.5416C143.54 12.8619 143.903 13.1556 144.394 13.4225C144.885 13.6895 145.51 13.9725 146.268 14.2714C146.845 14.485 147.362 14.7306 147.822 15.0082C148.281 15.2859 148.671 15.6062 148.991 15.9693C149.311 16.3217 149.557 16.7328 149.728 17.2026C149.909 17.6724 150 18.2117 150 18.8204C150 19.7814 149.754 20.6036 149.263 21.287C148.772 21.9704 148.105 22.4936 147.261 22.8567C146.428 23.2091 145.478 23.3853 144.41 23.3853C143.694 23.3853 143.043 23.3265 142.456 23.2091C141.869 23.0916 141.313 22.9154 140.79 22.6805L140.069 18.468H140.838L143.193 22.7926L141.463 21.6234C141.826 21.8156 142.157 21.9651 142.456 22.0719C142.755 22.168 143.038 22.2374 143.305 22.2801C143.582 22.3121 143.855 22.3281 144.122 22.3281C145.093 22.3281 145.884 22.1252 146.492 21.7195C147.101 21.303 147.405 20.6784 147.405 19.8455C147.405 19.4397 147.32 19.0926 147.149 18.8043C146.978 18.516 146.732 18.2597 146.412 18.0355C146.092 17.8006 145.707 17.5817 145.259 17.3788C144.821 17.1652 144.33 16.9517 143.785 16.7381C143.07 16.4498 142.467 16.1134 141.975 15.729C141.484 15.3446 141.11 14.8854 140.854 14.3515C140.609 13.8069 140.486 13.1663 140.486 12.4295C140.486 11.5432 140.71 10.7957 141.158 10.187C141.618 9.56771 142.232 9.09253 143 8.7615C143.78 8.43048 144.64 8.26497 145.579 8.26497Z" fill="#426B1F"/>
</svg>
